<?xml version="1.0" standalone="no"?>
<!DOCTYPE svg PUBLIC "-//W3C//DTD SVG 20010904//EN"
 "http://www.w3.org/TR/2001/REC-SVG-20010904/DTD/svg10.dtd">
<svg version="1.0" xmlns="http://www.w3.org/2000/svg"
 width="512.000000pt" height="512.000000pt" viewBox="0 0 512.000000 512.000000"
 preserveAspectRatio="xMidYMid meet">

<g transform="translate(0.000000,512.000000) scale(0.100000,-0.100000)"
fill="#000000" stroke="none">
<path d="M1000 5103 c-38 -13 -113 -83 -506 -477 -416 -415 -463 -466 -478
-510 -14 -45 -16 -191 -16 -1546 0 -1645 -4 -1545 60 -1622 17 -20 53 -48 82
-62 l52 -26 968 0 968 0 41 -26 c78 -49 224 -117 323 -150 439 -148 920 -90
1314 159 l64 40 92 -92 c85 -85 92 -94 88 -126 -8 -65 26 -109 281 -362 286
-285 305 -298 447 -298 72 0 93 4 141 27 70 35 132 97 167 168 23 47 27 68 27
140 0 142 -13 161 -298 447 -253 255 -297 289 -362 281 -32 -4 -41 3 -126 88
l-92 92 40 64 c326 515 320 1167 -15 1672 -143 217 -361 408 -595 524 l-87 43
-2 692 c-3 661 -4 694 -22 731 -25 50 -72 97 -122 122 -38 18 -74 19 -1214 21
-1037 1 -1180 0 -1220 -14z m2381 -182 l29 -29 0 -642 c0 -579 -2 -642 -16
-636 -8 3 -61 16 -117 28 -149 32 -436 32 -587 -1 -149 -32 -268 -73 -395
-137 -428 -214 -732 -621 -821 -1099 -26 -135 -26 -411 -1 -540 60 -305 195
-572 394 -778 l55 -57 -845 0 c-465 0 -853 3 -862 6 -47 18 -45 -33 -45 1519
l0 1455 353 0 c415 0 430 2 507 80 78 77 80 92 80 507 l0 353 1121 0 1121 0
29 -29z m-2443 -396 c-3 -291 -3 -295 -26 -317 -22 -23 -26 -23 -317 -26 -162
-2 -295 1 -295 5 0 10 623 633 633 633 4 0 7 -133 5 -295z m2344 -1059 c254
-59 463 -173 650 -354 204 -197 339 -448 395 -729 26 -132 23 -377 -5 -510
-62 -288 -192 -525 -398 -723 -186 -179 -414 -299 -676 -357 -116 -25 -409
-25 -525 0 -279 60 -492 176 -694 376 -205 203 -324 421 -380 694 -152 742
332 1466 1076 1611 120 23 137 25 300 20 114 -2 176 -9 257 -28z m928 -2431
l75 -75 -63 -62 -62 -63 -77 77 -78 78 60 60 c33 33 62 60 65 60 3 0 39 -34
80 -75z m716 -613 c37 -78 6 -180 -66 -221 -46 -25 -118 -28 -163 -5 -18 9
-132 116 -255 237 l-222 222 122 122 123 123 222 -222 c123 -123 230 -238 239
-256z"/>
<path d="M1412 4430 c-27 -11 -55 -71 -45 -97 3 -10 15 -28 26 -40 l20 -23
842 0 c837 0 842 0 869 21 26 21 35 65 20 104 -18 45 -13 45 -886 44 -477 0
-833 -4 -846 -9z"/>
<path d="M1395 3988 c-50 -44 -27 -131 37 -143 18 -3 404 -5 856 -3 l824 3 19
24 c29 36 25 94 -7 120 -27 21 -32 21 -865 21 l-838 0 -26 -22z"/>
<path d="M495 3583 c-65 -16 -88 -98 -39 -144 l26 -24 596 -3 c328 -2 612 0
631 3 74 14 104 87 57 142 l-24 28 -614 1 c-337 1 -622 0 -633 -3z"/>
<path d="M475 3148 c-52 -28 -62 -92 -20 -133 l24 -25 458 0 c483 1 476 0 501
47 19 35 14 63 -17 94 l-29 29 -449 0 c-305 -1 -454 -4 -468 -12z"/>
<path d="M455 2705 c-41 -40 -33 -105 16 -130 38 -20 720 -22 759 -2 54 27 63
94 20 137 -19 19 -35 20 -395 20 l-376 0 -24 -25z"/>
<path d="M490 2303 c-61 -23 -81 -100 -37 -141 23 -22 28 -22 358 -22 l336 0
21 23 c31 33 29 87 -4 118 l-26 24 -316 2 c-174 1 -324 -1 -332 -4z"/>
<path d="M455 1855 c-17 -16 -25 -35 -25 -60 0 -25 8 -44 25 -60 l24 -25 331
0 331 0 24 25 c34 33 34 87 0 120 l-24 25 -331 0 -331 0 -24 -25z"/>
<path d="M452 1427 c-31 -33 -29 -87 4 -118 l26 -24 361 -3 c389 -2 398 -1
426 49 17 30 9 71 -19 99 -19 19 -35 20 -398 20 l-379 0 -21 -23z"/>
<path d="M2800 3315 c-249 -41 -466 -151 -648 -329 -486 -474 -479 -1248 14
-1716 301 -286 731 -394 1134 -284 320 87 602 319 752 619 99 198 143 436 119
651 -59 525 -433 939 -951 1050 -104 22 -314 27 -420 9z m395 -179 c318 -69
578 -276 716 -570 212 -454 59 -1002 -360 -1280 -398 -265 -917 -221 -1267
107 -283 264 -392 673 -277 1042 117 372 425 642 811 711 94 16 279 12 377
-10z"/>
<path d="M2855 2979 c-157 -23 -328 -106 -447 -217 -39 -36 -48 -51 -48 -78 0
-47 8 -63 42 -80 42 -22 72 -11 137 47 59 54 204 129 281 147 25 6 77 14 115
17 83 8 109 19 124 52 18 39 13 63 -18 94 -32 32 -66 35 -186 18z"/>
</g>
</svg>
